<svg width="4585" height="574" viewBox="0 0 4585 574" fill="none" xmlns="http://www.w3.org/2000/svg">
<path d="M274.313 279.863L461.427 171.83C482.573 159.621 498.003 139.512 504.323 115.926C510.643 92.3405 507.334 67.2103 495.126 46.0639C482.917 24.9175 462.808 9.48718 439.222 3.16739C415.636 -3.1524 390.506 0.156039 369.36 12.3649L46.0356 199.039L274.313 279.863Z" fill="#EA4335"/>
<path d="M415.305 557.524C435.58 557.54 455.294 550.863 471.386 538.53C487.479 526.198 499.051 508.898 504.308 489.317C509.564 469.735 508.21 448.966 500.457 430.232C492.704 411.498 478.984 395.847 461.426 385.708L138.101 199.036C116.955 186.827 91.8241 183.519 68.2382 189.839C44.6523 196.159 24.5431 211.59 12.3344 232.737C0.125693 253.884 -3.18246 279.014 3.1377 302.6C9.45787 326.186 24.8886 346.295 46.0354 358.504L369.359 545.173C383.32 553.264 399.17 557.524 415.305 557.524Z" fill="#4285F4"/>
<path d="M736.932 557.524C753.068 557.525 768.918 553.265 782.878 545.175L1106.2 358.504L880.823 276.004L690.81 385.704C673.253 395.844 659.533 411.495 651.78 430.228C644.026 448.962 642.673 469.731 647.929 489.313C653.185 508.894 664.758 526.194 680.851 538.527C696.943 550.859 716.657 557.536 736.931 557.52L736.932 557.524Z" fill="#FBBC04"/>
<path d="M1060.08 370.856C1080.35 370.872 1100.07 364.195 1116.16 351.862C1132.25 339.53 1143.83 322.23 1149.08 302.649C1154.34 283.067 1152.98 262.298 1145.23 243.564C1137.48 224.831 1123.76 209.18 1106.2 199.04L782.878 12.3649C761.732 0.155914 736.602 -3.15265 713.016 3.16704C689.43 9.48674 669.321 24.917 657.112 46.0634C644.903 67.2098 641.594 92.34 647.914 115.926C654.234 139.512 669.664 159.621 690.81 171.83L1014.13 358.505C1028.09 366.593 1043.94 370.854 1060.08 370.856Z" fill="#0F9D58"/>
<path d="M1319.94 4.94507H1386.51C1409.11 4.94507 1428.83 9.6194 1445.68 18.9681C1462.13 27.9219 1475.62 41.4666 1484.51 57.9521C1493.55 74.5927 1498.07 93.6994 1498.07 115.272C1498.07 136.845 1493.55 155.953 1484.51 172.597C1475.62 189.083 1462.13 202.628 1445.68 211.581C1428.83 220.932 1409.11 225.606 1386.51 225.602H1319.94V4.94507ZM1386.51 200.637C1412.6 200.637 1433.3 193.137 1448.61 178.137C1463.92 163.137 1471.57 142.181 1471.57 115.27C1471.57 88.3581 1463.92 67.4021 1448.61 52.4021C1433.3 37.4021 1412.6 29.9021 1386.51 29.9021H1345.83V200.637H1386.51Z" fill="#676C72"/>
<path d="M1550.15 219.743C1538.28 212.604 1528.62 202.309 1522.26 190.005C1515.58 177.369 1512.24 163.141 1512.24 147.322C1512.09 132.812 1515.3 118.463 1521.64 105.41C1527.61 93.0176 1536.82 82.474 1548.3 74.901C1559.8 67.301 1573.16 63.501 1588.36 63.501C1603.77 63.501 1617.13 66.9423 1628.42 73.825C1639.66 80.6369 1648.69 90.5311 1654.47 102.331C1660.52 114.456 1663.55 128.323 1663.56 143.931C1663.6 146.631 1663.29 149.325 1662.63 151.944H1538.44C1539.05 163.861 1541.93 173.928 1547.07 182.144C1551.79 189.973 1558.55 196.367 1566.63 200.635C1574.28 204.679 1582.79 206.795 1591.44 206.797C1611.58 206.797 1627.09 197.346 1637.98 178.445L1660.17 189.231C1653.78 201.541 1644.27 211.955 1632.58 219.431C1620.97 226.827 1606.95 230.525 1590.52 230.525C1575.52 230.528 1562.06 226.934 1550.15 219.743ZM1635.82 130.373C1635.32 123.492 1633.43 116.782 1630.27 110.649C1626.71 103.779 1621.33 98.022 1614.71 94.008C1607.62 89.4913 1598.74 87.2313 1588.05 87.228C1575.73 87.228 1565.3 91.183 1556.77 99.093C1548.25 107.003 1542.65 117.43 1539.98 130.373H1635.82Z" fill="#676C72"/>
<path d="M1667.56 68.4299H1695.6L1744.3 194.781H1744.91L1794.22 68.4299H1821.64L1757.54 225.597H1731.04L1667.56 68.4299Z" fill="#676C72"/>
<path d="M1862.02 219.743C1850.15 212.604 1840.49 202.309 1834.13 190.005C1827.45 177.369 1824.11 163.141 1824.11 147.322C1823.95 132.812 1827.17 118.464 1833.51 105.41C1839.48 93.0175 1848.69 82.4739 1860.17 74.901C1871.67 67.301 1885.03 63.501 1900.23 63.501C1915.64 63.501 1929 66.9423 1940.3 73.825C1951.53 80.638 1960.56 90.5319 1966.34 102.331C1972.39 114.456 1975.42 128.323 1975.43 143.931C1975.47 146.631 1975.16 149.325 1974.5 151.944H1850.31C1850.92 163.861 1853.8 173.928 1858.93 182.144C1863.65 189.974 1870.42 196.367 1878.5 200.635C1886.15 204.68 1894.66 206.796 1903.31 206.798C1923.44 206.798 1938.96 197.347 1949.85 178.446L1972.03 189.232C1965.65 201.542 1956.13 211.956 1944.45 219.432C1932.84 226.828 1918.82 230.526 1902.39 230.526C1887.39 230.528 1873.93 226.934 1862.02 219.743ZM1947.69 130.373C1947.19 123.491 1945.3 116.782 1942.14 110.649C1938.58 103.779 1933.2 98.022 1926.58 94.008C1919.49 89.4913 1910.61 87.2313 1899.92 87.228C1887.59 87.228 1877.17 91.183 1868.64 99.093C1860.12 107.003 1854.52 117.43 1851.85 130.373H1947.69Z" fill="#676C72"/>
<path d="M1999.77 4.94507H2025.97V225.597H1999.77V4.94507Z" fill="#676C72"/>
<path d="M2087.91 219.435C2075.72 212.191 2065.76 201.746 2059.09 189.235C2052.31 176.195 2048.77 161.713 2048.77 147.015C2048.77 132.317 2052.31 117.835 2059.09 104.795C2065.76 92.2849 2075.72 81.8401 2087.91 74.5951C2100.23 67.1964 2114.1 63.4971 2129.51 63.4971C2144.92 63.4971 2158.79 67.1951 2171.11 74.5911C2183.29 81.8372 2193.26 92.2817 2199.92 104.791C2206.71 117.831 2210.25 132.313 2210.25 147.011C2210.25 161.71 2206.71 176.192 2199.92 189.231C2193.26 201.741 2183.29 212.186 2171.11 219.431C2158.78 226.827 2144.92 230.525 2129.51 230.525C2114.1 230.525 2100.24 226.828 2087.91 219.435ZM2156.48 199.557C2164.93 194.591 2171.86 187.396 2176.51 178.757C2181.54 169.719 2184.06 159.138 2184.06 147.015C2184.06 134.892 2181.54 124.311 2176.51 115.273C2171.86 106.637 2164.93 99.442 2156.48 94.4731C2148.3 89.6845 2138.99 87.1829 2129.51 87.2301C2119.83 87.1892 2110.31 89.7758 2101.98 94.7143C2093.65 99.6529 2086.82 106.758 2082.21 115.274C2077.17 124.317 2074.66 134.897 2074.66 147.016C2074.66 159.135 2077.18 169.715 2082.21 178.758C2085.66 185.064 2090.33 190.617 2095.95 195.091C2101.58 199.564 2108.04 202.867 2114.96 204.805C2121.88 206.743 2129.12 207.277 2136.25 206.376C2143.38 205.475 2150.26 203.157 2156.48 199.558L2156.48 199.557Z" fill="#676C72"/>
<path d="M2230.83 68.43H2255.79V91.85H2257.02C2261.74 83.8387 2268.88 77.1103 2278.44 71.665C2288.27 66.151 2299.38 63.3331 2310.64 63.497C2324.15 63.3672 2337.41 67.1102 2348.86 74.283C2360.46 81.5821 2369.84 91.9208 2375.98 104.176C2382.55 116.917 2385.84 131.195 2385.84 147.012C2385.84 163.037 2382.55 177.368 2375.98 190.003C2369.8 202.195 2360.43 212.475 2348.86 219.741C2337.41 226.914 2324.15 230.657 2310.64 230.527C2299.38 230.691 2288.27 227.874 2278.44 222.361C2268.89 216.92 2261.75 210.294 2257.02 202.483H2255.79L2257.02 224.055V292.162H2230.83L2230.83 68.43ZM2333.14 199.404C2341.36 194.248 2348.02 186.95 2352.4 178.294C2357.23 169.154 2359.64 158.727 2359.65 147.014C2359.65 135.301 2357.23 124.874 2352.4 115.734C2348.02 107.079 2341.36 99.7809 2333.14 94.625C2325.49 89.7927 2316.62 87.228 2307.56 87.228C2298.51 87.228 2289.64 89.7927 2281.99 94.625C2273.82 99.7259 2267.21 106.975 2262.88 115.58C2258.15 124.623 2255.79 135.101 2255.79 147.014C2255.8 158.927 2258.16 169.405 2262.88 178.448C2267.2 187.054 2273.81 194.304 2281.99 199.404C2289.64 204.236 2298.51 206.8 2307.56 206.8C2316.62 206.8 2325.49 204.236 2333.14 199.404Z" fill="#676C72"/>
<path d="M2440.77 219.743C2428.89 212.604 2419.24 202.309 2412.88 190.005C2406.2 177.369 2402.86 163.141 2402.86 147.322C2402.7 132.812 2405.92 118.464 2412.26 105.41C2418.23 93.0175 2427.44 82.4739 2438.92 74.901C2450.42 67.301 2463.78 63.501 2478.98 63.501C2494.39 63.501 2507.74 66.9423 2519.04 73.825C2530.28 80.6375 2539.31 90.5316 2545.08 102.331C2551.14 114.456 2554.17 128.323 2554.18 143.931C2554.22 146.631 2553.91 149.325 2553.25 151.944H2429.05C2429.67 163.861 2432.55 173.928 2437.68 182.144C2442.4 189.974 2449.17 196.367 2457.25 200.635C2464.9 204.68 2473.41 206.796 2482.06 206.798C2502.19 206.798 2517.71 197.347 2528.59 178.446L2550.78 189.232C2544.4 201.542 2534.88 211.956 2523.2 219.432C2511.59 226.828 2497.57 230.526 2481.14 230.526C2466.14 230.528 2452.68 226.934 2440.77 219.743ZM2526.44 130.373C2525.94 123.491 2524.05 116.782 2520.89 110.649C2517.33 103.779 2511.94 98.022 2505.33 94.008C2498.24 89.4913 2489.35 87.2313 2478.67 87.228C2466.34 87.228 2455.92 91.183 2447.39 99.093C2438.86 107.003 2433.26 117.43 2430.59 130.373H2526.44Z" fill="#676C72"/>
<path d="M2578.52 68.4301H2603.48V93.6971H2604.71C2607.79 85.0684 2613.75 77.8777 2622.59 72.1251C2630.77 66.5721 2640.43 63.5697 2650.32 63.4971C2657.51 63.4971 2663.67 64.6267 2668.81 66.8861V94.9301C2661.9 91.5698 2654.3 89.881 2646.62 90.0001C2639.14 89.9631 2631.82 92.2273 2625.67 96.4861C2619.19 100.926 2613.95 106.928 2610.41 113.936C2606.61 121.23 2604.66 129.341 2604.71 137.564V225.597H2578.51L2578.52 68.4301Z" fill="#676C72"/>
<path d="M2763.42 214.812C2749.04 204.335 2739.17 189.646 2733.83 170.743L2758.8 160.574C2762.29 173.724 2768.76 184.51 2778.21 192.932C2787.3 201.219 2799.2 205.737 2811.49 205.567C2824.23 205.567 2835.01 202.126 2843.85 195.243C2852.69 188.36 2857.11 178.96 2857.1 167.043C2857.22 162.238 2856.27 157.466 2854.33 153.07C2852.38 148.674 2849.49 144.763 2845.86 141.618C2838.35 134.944 2826.08 128.729 2809.03 122.973L2795.16 118.043C2779.55 112.496 2766.81 105.203 2756.95 96.162C2747.09 87.1213 2742.16 74.588 2742.16 58.562C2742.11 48.2184 2745.11 38.091 2750.78 29.439C2756.76 20.2995 2765.06 12.9089 2774.82 8.02097C2785.5 2.58226 2797.35 -0.168262 2809.34 0.00796481C2822.07 0.00796481 2833.17 2.37063 2842.62 7.09596C2852.08 11.8213 2859.63 17.574 2865.27 24.354C2870.92 31.134 2874.87 37.8113 2877.13 44.386L2852.48 54.864C2850.42 47.264 2845.75 40.3813 2838.46 34.216C2831.17 28.0506 2821.56 24.971 2809.64 24.977C2798.34 24.977 2788.68 28.1613 2780.67 34.53C2772.66 40.8986 2768.66 48.9113 2768.66 58.568C2768.57 62.6391 2769.44 66.6736 2771.21 70.3422C2772.98 74.0109 2775.59 77.2098 2778.83 79.678C2785.61 85.124 2795.88 90.2086 2809.64 94.932L2824.13 99.863C2842.82 106.643 2857.41 115.118 2867.89 125.288C2878.37 135.458 2883.61 149.274 2883.6 166.737C2883.6 180.913 2879.96 192.829 2872.67 202.485C2865.6 211.97 2856.05 219.327 2845.08 223.75C2834.23 228.219 2822.61 230.522 2810.88 230.529C2793.77 230.58 2777.11 225.063 2763.42 214.812Z" fill="#676C72"/>
<path d="M2945.7 227.397C2940.61 225.525 2935.94 222.642 2931.99 218.923C2927.94 215.046 2924.79 210.335 2922.74 205.117C2920.69 199.889 2919.66 193.509 2919.66 185.977V92.159H2892.23V68.43H2919.66V24.053H2945.86V68.43H2984.07V92.159H2945.86V179.723C2945.86 188.546 2947.5 195.057 2950.79 199.255C2954.69 203.877 2960.34 206.186 2967.74 206.183C2973.87 206.131 2979.87 204.312 2985 200.944V226.523C2982 227.931 2978.84 228.966 2975.6 229.604C2971.58 230.288 2967.5 230.598 2963.42 230.529C2957.37 230.585 2951.37 229.523 2945.7 227.397Z" fill="#676C72"/>
<path d="M3023.36 213.888C3013.39 202.794 3008.41 187.282 3008.42 167.353V68.4299H3034.61V163.347C3034.61 178.347 3038 189.339 3044.78 196.322C3051.56 203.305 3060.7 206.798 3072.21 206.8C3080.61 206.931 3088.85 204.454 3095.78 199.712C3102.63 195.03 3108.15 188.661 3111.81 181.221C3115.57 173.768 3117.53 165.532 3117.51 157.183V68.4299H3143.71V225.597H3118.74V202.797H3117.51C3113.2 210.607 3106.31 217.181 3096.86 222.519C3087.67 227.791 3077.26 230.554 3066.66 230.532C3047.76 230.53 3033.32 224.982 3023.36 213.888Z" fill="#676C72"/>
<path d="M3203.34 219.743C3191.83 212.443 3182.51 202.167 3176.37 190.005C3169.79 177.369 3166.51 163.039 3166.51 147.014C3166.51 131.196 3169.8 116.917 3176.37 104.178C3182.48 91.9525 3191.8 81.6193 3203.34 74.2851C3214.72 67.099 3227.93 63.353 3241.4 63.4971C3253.52 63.4971 3264.3 66.2191 3273.75 71.6631C3283.21 77.1071 3290.4 83.8354 3295.33 91.8481H3296.56L3295.33 69.9691V4.94507H3321.53V225.597H3296.56V202.485H3295.33C3290.4 210.296 3283.21 216.922 3273.76 222.363C3264.31 227.804 3253.53 230.526 3241.4 230.529C3227.94 230.675 3214.72 226.929 3203.34 219.743ZM3270.21 199.404C3278.33 194.243 3284.93 187.009 3289.32 178.448C3294.14 169.41 3296.56 158.932 3296.56 147.014C3296.56 135.096 3294.15 124.618 3289.32 115.58C3284.93 107.02 3278.33 99.7863 3270.21 94.6251C3262.53 89.7922 3253.63 87.2281 3244.55 87.2281C3235.48 87.2281 3226.58 89.7922 3218.9 94.6251C3210.68 99.7799 3204.02 107.078 3199.64 115.734C3194.81 124.879 3192.39 135.306 3192.4 147.014C3192.4 158.722 3194.81 169.149 3199.64 178.294C3204.02 186.951 3210.68 194.249 3218.9 199.404C3226.58 204.236 3235.48 206.799 3244.55 206.799C3253.63 206.799 3262.53 204.236 3270.21 199.404Z" fill="#676C72"/>
<path d="M3382.23 219.743C3370.36 212.604 3360.71 202.309 3354.34 190.005C3347.66 177.369 3344.33 163.141 3344.33 147.322C3344.17 132.812 3347.39 118.464 3353.73 105.41C3359.69 93.0178 3368.9 82.4743 3380.38 74.901C3391.89 67.301 3405.24 63.501 3420.45 63.501C3435.86 63.501 3449.21 66.9423 3460.51 73.825C3471.74 80.6372 3480.78 90.5313 3486.55 102.331C3492.61 114.456 3495.64 128.323 3495.64 143.931C3495.69 146.631 3495.38 149.325 3494.72 151.944H3370.52C3371.14 163.861 3374.01 173.928 3379.15 182.144C3383.87 189.973 3390.63 196.367 3398.72 200.635C3406.36 204.68 3414.88 206.795 3423.53 206.798C3443.66 206.798 3459.17 197.347 3470.06 178.446L3492.25 189.232C3485.86 201.542 3476.35 211.956 3464.67 219.432C3453.06 226.828 3439.04 230.526 3422.6 230.526C3407.6 230.528 3394.15 226.934 3382.23 219.743ZM3467.9 130.373C3467.4 123.491 3465.52 116.782 3462.36 110.649C3458.79 103.779 3453.41 98.0224 3446.79 94.008C3439.71 89.4913 3430.82 87.2313 3420.14 87.228C3407.81 87.228 3397.38 91.183 3388.86 99.093C3380.33 107.003 3374.73 117.43 3372.06 130.373H3467.9Z" fill="#676C72"/>
<path d="M3519.98 68.4299H3544.94V91.5429H3546.17C3550.49 83.7369 3557.37 77.1109 3566.82 71.6649C3575.98 66.3004 3586.41 63.4811 3597.02 63.4989C3615.92 63.4989 3630.36 68.9945 3640.32 79.9859C3650.29 90.9772 3655.27 105.924 3655.27 124.825V225.597H3629.08V128.832C3629.08 114.246 3625.58 103.665 3618.6 97.0899C3611.61 90.5145 3602.06 87.2272 3589.94 87.2279C3581.83 87.1301 3573.89 89.6122 3567.29 94.3159C3560.58 99.0823 3555.21 105.506 3551.72 112.961C3548.06 120.499 3546.17 128.772 3546.18 137.152V225.597H3519.98V68.4299Z" fill="#676C72"/>
<path d="M3721.68 227.397C3716.58 225.524 3711.92 222.642 3707.97 218.923C3703.92 215.046 3700.76 210.335 3698.72 205.117C3696.67 199.889 3695.64 193.509 3695.64 185.977V92.159H3668.21V68.43H3695.64V24.053H3721.84V68.43H3760.04V92.159H3721.83V179.723C3721.83 188.546 3723.47 195.057 3726.76 199.255C3730.66 203.877 3736.31 206.186 3743.71 206.183C3749.85 206.131 3755.84 204.312 3760.97 200.944V226.523C3757.97 227.931 3754.81 228.966 3751.57 229.604C3747.55 230.288 3743.47 230.598 3739.39 230.529C3733.35 230.584 3727.34 229.522 3721.68 227.397Z" fill="#676C72"/>
<path d="M3895.34 215.429C3878.12 205.606 3863.89 191.276 3854.2 173.979C3844.23 156.413 3839.25 136.844 3839.25 115.272C3839.26 93.6999 3844.24 74.1309 3854.2 56.5649C3863.9 39.2688 3878.12 24.9396 3895.34 15.1149C3912.8 5.05222 3932.22 0.0188926 3953.59 0.0148926C3970.02 0.0148926 3985.07 3.14823 3998.73 9.41489C4012.36 15.6601 4024.5 24.7492 4034.33 36.0719L4015.53 54.2549C4007.1 44.1882 3997.91 36.7919 3987.95 32.0659C3977.99 27.3399 3966.53 24.9769 3953.58 24.9769C3938.16 24.8222 3922.97 28.6997 3909.51 36.2249C3896.18 43.6971 3885.15 54.6745 3877.61 67.9679C3869.7 81.6346 3865.75 97.4012 3865.75 115.268C3865.75 133.135 3869.71 148.903 3877.61 162.573C3885.15 175.868 3896.18 186.845 3909.51 194.315C3922.97 201.842 3938.16 205.72 3953.58 205.563C3980.29 205.563 4002.99 194.572 4021.69 172.589L4040.8 191.079C4030.39 203.304 4017.46 213.134 4002.89 219.893C3987.89 226.981 3971.45 230.525 3953.58 230.525C3932.21 230.528 3912.8 225.496 3895.34 215.429Z" fill="#676C72"/>
<path d="M4063.91 4.94507H4090.1V225.597H4063.91V4.94507Z" fill="#676C72"/>
<path d="M4136.48 213.888C4126.52 202.794 4121.53 187.282 4121.54 167.353V68.4299H4147.73V163.347C4147.73 178.347 4151.12 189.339 4157.9 196.322C4164.68 203.305 4173.82 206.798 4185.33 206.8C4193.73 206.931 4201.97 204.455 4208.91 199.712C4215.75 195.03 4221.27 188.661 4224.93 181.221C4228.7 173.768 4230.65 165.532 4230.63 157.183V68.4299H4256.83V225.597H4231.87V202.797H4230.64C4226.32 210.607 4219.44 217.181 4209.99 222.519C4200.8 227.791 4190.38 230.554 4179.79 230.532C4160.88 230.53 4146.45 224.982 4136.48 213.888Z" fill="#676C72"/>
<path d="M4337.1 222.363C4327.55 216.922 4320.41 210.296 4315.68 202.485H4314.45V225.597H4289.49V4.94507H4315.68V69.9711L4314.45 91.8501H4315.68C4320.41 83.8387 4327.55 77.1104 4337.1 71.6651C4346.93 66.1522 4358.04 63.335 4369.3 63.4991C4382.81 63.3693 4396.07 67.1124 4407.52 74.2851C4419.12 81.5845 4428.5 91.9231 4434.64 104.178C4441.21 116.919 4444.5 131.197 4444.5 147.014C4444.5 163.039 4441.21 177.37 4434.64 190.005C4428.46 202.197 4419.09 212.477 4407.52 219.743C4396.07 226.916 4382.81 230.659 4369.3 230.529C4358.04 230.693 4346.93 227.876 4337.1 222.363ZM4391.8 199.404C4400.02 194.248 4406.68 186.95 4411.07 178.294C4415.89 169.154 4418.3 158.727 4418.31 147.014C4418.31 135.301 4415.9 124.874 4411.07 115.734C4406.68 107.079 4400.02 99.7811 4391.8 94.6251C4384.15 89.7927 4375.28 87.228 4366.23 87.228C4357.17 87.228 4348.3 89.7927 4340.65 94.6251C4332.48 99.7256 4325.87 106.975 4321.54 115.58C4316.81 124.623 4314.45 135.101 4314.45 147.014C4314.46 158.927 4316.82 169.405 4321.54 178.448C4325.87 187.054 4332.48 194.304 4340.65 199.404C4348.3 204.236 4357.17 206.8 4366.23 206.8C4375.28 206.8 4384.15 204.236 4391.8 199.404Z" fill="#676C72"/>
<path d="M4479.94 218.665C4469.02 211.236 4460.63 200.643 4455.91 188.309L4479.33 177.832C4483.23 187.284 4489.03 194.577 4496.74 199.712C4504.24 204.786 4513.11 207.47 4522.16 207.412C4532.02 207.412 4540.45 205.409 4547.43 201.403C4554.42 197.397 4557.91 191.697 4557.91 184.303C4557.91 177.729 4555.14 172.438 4549.59 168.431C4544.04 164.424 4535.31 160.982 4523.4 158.107L4504.29 153.177C4491.75 150.095 4481.48 144.856 4473.47 137.46C4465.46 130.064 4461.45 120.511 4461.45 108.8C4461.32 100.133 4464.21 91.6903 4469.62 84.916C4475.35 77.8193 4482.84 72.3474 4491.34 69.045C4500.65 65.2959 4510.59 63.4109 4520.62 63.497C4534.38 63.497 4546.66 66.4756 4557.45 72.433C4568.24 78.3903 4575.89 86.7113 4580.41 97.396L4557.6 107.874C4550.62 93.9053 4538.19 86.92 4520.31 86.918C4511.68 86.918 4504.13 88.9213 4497.66 92.928C4491.19 96.9346 4487.96 102.019 4487.95 108.182C4487.89 110.889 4488.47 113.573 4489.65 116.011C4490.83 118.449 4492.57 120.572 4494.73 122.204C4499.25 125.804 4506.03 128.732 4515.07 130.987L4537.88 136.843C4553.29 140.748 4564.9 146.551 4572.7 154.254C4576.49 157.893 4579.49 162.277 4581.5 167.13C4583.52 171.983 4584.51 177.2 4584.41 182.454C4584.57 191.623 4581.64 200.58 4576.09 207.879C4570.55 215.174 4563.05 220.774 4553.59 224.679C4543.6 228.683 4532.92 230.672 4522.16 230.534C4505.31 230.531 4491.24 226.574 4479.94 218.665Z" fill="#676C72"/>
<path d="M1432.09 511.523H1411.29L1356.73 437.923L1340.59 452.416V511.523H1322.99V360.183H1340.59V435.646C1344.52 431.16 1348.56 426.709 1352.7 422.292C1356.84 417.807 1360.94 413.287 1365.02 408.732L1409.22 360.183H1429.82L1369.57 425.812L1432.09 511.523ZM1444.32 511.523V360.183H1461.91V511.523H1444.32ZM1579.31 511.523H1495.05V360.183H1579.31V375.71H1512.65V424.673H1575.48V439.994H1512.65V495.996H1579.31V511.523ZM1650.85 511.523H1633.15V375.71H1585.53V360.183H1698.26V375.71H1650.85V511.523ZM1823.94 432.23H1876.84V505.623C1868.9 508.314 1860.72 510.315 1852.31 511.626C1843.95 512.938 1834.6 513.593 1824.25 513.593C1808.52 513.593 1795.23 510.453 1784.4 504.173C1773.63 497.893 1765.46 488.957 1759.87 477.363C1754.28 465.7 1751.48 451.863 1751.48 435.853C1751.48 420.188 1754.55 406.524 1760.69 394.861C1766.9 383.198 1775.84 374.158 1787.5 367.74C1799.24 361.253 1813.31 358.009 1829.74 358.009C1838.16 358.009 1846.13 358.803 1853.65 360.39C1861.24 361.908 1868.28 364.082 1874.77 366.912L1868.04 382.232C1862.45 379.817 1856.27 377.746 1849.51 376.021C1842.82 374.296 1835.88 373.433 1828.7 373.433C1816.35 373.433 1805.76 375.986 1796.92 381.093C1788.16 386.2 1781.43 393.412 1776.74 402.728C1772.11 412.044 1769.8 423.086 1769.8 435.853C1769.8 448.482 1771.84 459.489 1775.91 468.875C1779.98 478.191 1786.33 485.437 1794.96 490.613C1803.58 495.789 1814.69 498.376 1828.29 498.376C1835.12 498.376 1840.99 497.997 1845.89 497.238C1850.79 496.41 1855.24 495.444 1859.24 494.339V447.964H1823.94V432.23ZM1953.97 396C1956.24 396 1958.62 396.138 1961.11 396.414C1963.59 396.621 1965.8 396.931 1967.73 397.345L1965.56 413.287C1963.7 412.804 1961.63 412.424 1959.35 412.148C1957.07 411.872 1954.93 411.734 1952.93 411.734C1948.38 411.734 1944.06 412.666 1939.99 414.529C1935.99 416.323 1932.47 418.945 1929.43 422.396C1926.4 425.778 1924.02 429.884 1922.29 434.714C1920.56 439.476 1919.7 444.79 1919.7 450.656V511.523H1902.41V398.07H1916.7L1918.56 418.98H1919.29C1921.63 414.77 1924.46 410.94 1927.78 407.49C1931.09 403.97 1934.92 401.175 1939.27 399.105C1943.68 397.035 1948.58 396 1953.97 396ZM2078.5 454.589C2078.5 463.906 2077.3 472.222 2074.88 479.537C2072.46 486.852 2068.98 493.028 2064.43 498.066C2059.87 503.104 2054.35 506.968 2047.86 509.66C2041.44 512.282 2034.16 513.593 2026.02 513.593C2018.43 513.593 2011.46 512.282 2005.11 509.66C1998.83 506.968 1993.38 503.104 1988.76 498.066C1984.2 493.028 1980.65 486.852 1978.09 479.537C1975.61 472.222 1974.37 463.906 1974.37 454.589C1974.37 442.167 1976.47 431.609 1980.68 422.914C1984.89 414.149 1990.89 407.49 1998.69 402.935C2006.56 398.311 2015.91 396 2026.75 396C2037.1 396 2046.14 398.311 2053.87 402.935C2061.66 407.559 2067.7 414.253 2071.98 423.017C2076.33 431.712 2078.5 442.236 2078.5 454.589ZM1992.17 454.589C1992.17 463.699 1993.38 471.6 1995.79 478.294C1998.21 484.988 2001.94 490.164 2006.97 493.822C2012.01 497.479 2018.5 499.308 2026.43 499.308C2034.3 499.308 2040.75 497.479 2045.79 493.822C2050.9 490.164 2054.66 484.988 2057.08 478.294C2059.49 471.6 2060.7 463.699 2060.7 454.589C2060.7 445.549 2059.49 437.751 2057.08 431.195C2054.66 424.57 2050.93 419.463 2045.9 415.875C2040.86 412.286 2034.34 410.492 2026.33 410.492C2014.53 410.492 2005.87 414.391 2000.35 422.189C1994.9 429.987 1992.17 440.787 1992.17 454.589ZM2193.41 398.07V511.523H2179.34L2176.85 495.582H2175.92C2173.57 499.515 2170.54 502.828 2166.81 505.519C2163.08 508.21 2158.87 510.212 2154.18 511.523C2149.56 512.903 2144.62 513.593 2139.38 513.593C2130.41 513.593 2122.89 512.144 2116.81 509.246C2110.74 506.347 2106.15 501.861 2103.04 495.789C2100.01 489.716 2098.49 481.917 2098.49 472.394V398.07H2115.88V471.152C2115.88 480.606 2118.02 487.68 2122.3 492.373C2126.58 496.996 2133.1 499.308 2141.86 499.308C2150.28 499.308 2156.98 497.721 2161.95 494.546C2166.98 491.372 2170.61 486.714 2172.81 480.572C2175.02 474.361 2176.13 466.77 2176.13 457.798V398.07H2193.41ZM2274.58 396C2288.73 396 2300.01 400.865 2308.43 410.595C2316.85 420.326 2321.06 434.956 2321.06 454.486C2321.06 467.391 2319.12 478.225 2315.26 486.99C2311.4 495.754 2305.94 502.379 2298.9 506.865C2291.93 511.35 2283.69 513.593 2274.16 513.593C2268.16 513.593 2262.88 512.8 2258.33 511.212C2253.77 509.625 2249.87 507.486 2246.63 504.794C2243.39 502.103 2240.69 499.17 2238.55 495.996H2237.31C2237.52 498.687 2237.76 501.931 2238.04 505.726C2238.38 509.522 2238.55 512.834 2238.55 515.664V562.246H2221.27V398.07H2235.45L2237.73 414.839H2238.55C2240.76 411.389 2243.45 408.249 2246.63 405.419C2249.8 402.521 2253.67 400.244 2258.22 398.587C2262.85 396.862 2268.3 396 2274.58 396ZM2271.58 410.492C2263.71 410.492 2257.36 412.01 2252.53 415.046C2247.77 418.083 2244.28 422.638 2242.07 428.71C2239.87 434.714 2238.69 442.271 2238.55 451.38V454.693C2238.55 464.285 2239.59 472.394 2241.66 479.019C2243.8 485.644 2247.28 490.682 2252.12 494.132C2257.02 497.583 2263.57 499.308 2271.78 499.308C2278.82 499.308 2284.69 497.41 2289.38 493.615C2294.07 489.819 2297.56 484.54 2299.84 477.777C2302.18 470.945 2303.36 463.112 2303.36 454.279C2303.36 440.891 2300.73 430.263 2295.49 422.396C2290.31 414.46 2282.34 410.492 2271.58 410.492ZM2487.01 454.589C2487.01 463.906 2485.8 472.222 2483.39 479.537C2480.97 486.852 2477.49 493.028 2472.93 498.066C2468.38 503.104 2462.86 506.968 2456.37 509.66C2449.95 512.282 2442.67 513.593 2434.53 513.593C2426.94 513.593 2419.97 512.282 2413.62 509.66C2407.34 506.968 2401.88 503.104 2397.26 498.066C2392.71 493.028 2389.15 486.852 2386.6 479.537C2384.11 472.222 2382.87 463.906 2382.87 454.589C2382.87 442.167 2384.98 431.609 2389.19 422.914C2393.4 414.149 2399.4 407.49 2407.2 402.935C2415.07 398.311 2424.42 396 2435.25 396C2445.6 396 2454.64 398.311 2462.37 402.935C2470.17 407.559 2476.21 414.253 2480.49 423.017C2484.84 431.712 2487.01 442.236 2487.01 454.589ZM2400.68 454.589C2400.68 463.699 2401.88 471.6 2404.3 478.294C2406.72 484.988 2410.44 490.164 2415.48 493.822C2420.52 497.479 2427 499.308 2434.94 499.308C2442.81 499.308 2449.26 497.479 2454.3 493.822C2459.4 490.164 2463.17 484.988 2465.58 478.294C2468 471.6 2469.2 463.699 2469.2 454.589C2469.2 445.549 2468 437.751 2465.58 431.195C2463.17 424.57 2459.44 419.463 2454.4 415.875C2449.36 412.286 2442.84 410.492 2434.84 410.492C2423.04 410.492 2414.38 414.391 2408.85 422.189C2403.4 429.987 2400.68 440.787 2400.68 454.589ZM2558.75 411.527H2530.49V511.523H2513.31V411.527H2493.23V403.246L2513.31 397.552V389.996C2513.31 380.472 2514.73 372.743 2517.55 366.808C2520.38 360.804 2524.49 356.388 2529.87 353.558C2535.26 350.729 2541.81 349.314 2549.54 349.314C2553.89 349.314 2557.86 349.694 2561.45 350.453C2565.1 351.212 2568.31 352.074 2571.07 353.041L2566.62 366.601C2564.27 365.842 2561.62 365.152 2558.65 364.531C2555.75 363.841 2552.78 363.496 2549.75 363.496C2543.19 363.496 2538.33 365.635 2535.15 369.914C2532.05 374.123 2530.49 380.748 2530.49 389.789V398.07H2558.75V411.527ZM2620.36 511.523V360.183H2637.96V511.523H2620.36ZM2722.23 396C2735.69 396 2745.87 399.312 2752.77 405.937C2759.67 412.493 2763.12 423.052 2763.12 437.613V511.523H2746.14V438.751C2746.14 429.297 2743.97 422.223 2739.62 417.531C2735.34 412.838 2728.75 410.492 2719.85 410.492C2707.29 410.492 2698.46 414.046 2693.35 421.154C2688.24 428.262 2685.69 438.579 2685.69 452.105V511.523H2668.51V398.07H2682.38L2684.96 414.425H2685.9C2688.31 410.423 2691.38 407.076 2695.11 404.384C2698.84 401.624 2703.01 399.554 2707.63 398.173C2712.26 396.724 2717.12 396 2722.23 396ZM2863.43 480.468C2863.43 487.714 2861.6 493.822 2857.95 498.791C2854.36 503.69 2849.18 507.382 2842.42 509.867C2835.73 512.351 2827.72 513.593 2818.4 513.593C2810.47 513.593 2803.6 512.972 2797.8 511.73C2792.01 510.488 2786.94 508.728 2782.59 506.451V490.613C2787.21 492.89 2792.73 494.96 2799.15 496.824C2805.57 498.687 2812.12 499.619 2818.82 499.619C2828.62 499.619 2835.73 498.031 2840.14 494.857C2844.56 491.682 2846.77 487.369 2846.77 481.917C2846.77 478.812 2845.87 476.086 2844.08 473.74C2842.35 471.324 2839.42 469.013 2835.28 466.804C2831.14 464.527 2825.41 462.042 2818.09 459.351C2810.85 456.591 2804.57 453.865 2799.25 451.173C2794.01 448.413 2789.94 445.066 2787.04 441.132C2784.21 437.199 2782.79 432.092 2782.79 425.812C2782.79 416.22 2786.66 408.87 2794.39 403.763C2802.19 398.587 2812.4 396 2825.03 396C2831.86 396 2838.24 396.69 2844.18 398.07C2850.18 399.381 2855.77 401.175 2860.95 403.453L2855.15 417.22C2850.46 415.219 2845.46 413.528 2840.14 412.148C2834.83 410.768 2829.41 410.078 2823.89 410.078C2815.95 410.078 2809.85 411.389 2805.57 414.011C2801.36 416.634 2799.25 420.222 2799.25 424.777C2799.25 428.296 2800.22 431.195 2802.15 433.472C2804.15 435.75 2807.33 437.889 2811.68 439.89C2816.02 441.891 2821.75 444.238 2828.86 446.929C2835.97 449.552 2842.11 452.278 2847.28 455.107C2852.46 457.867 2856.43 461.249 2859.19 465.251C2862.02 469.185 2863.43 474.257 2863.43 480.468ZM2919.24 499.515C2922.07 499.515 2924.96 499.274 2927.93 498.791C2930.9 498.307 2933.31 497.721 2935.18 497.031V510.384C2933.18 511.281 2930.38 512.041 2926.79 512.662C2923.27 513.283 2919.82 513.593 2916.44 513.593C2910.44 513.593 2904.99 512.558 2900.09 510.488C2895.19 508.348 2891.25 504.76 2888.29 499.722C2885.39 494.684 2883.94 487.714 2883.94 478.812V411.527H2867.79V403.142L2884.04 396.414L2890.87 371.777H2901.22V398.07H2934.45V411.527H2901.22V478.294C2901.22 485.403 2902.85 490.716 2906.09 494.236C2909.4 497.755 2913.78 499.515 2919.24 499.515ZM2966.86 398.07V511.523H2949.68V398.07H2966.86ZM2958.48 355.628C2961.31 355.628 2963.72 356.56 2965.72 358.423C2967.79 360.218 2968.83 363.047 2968.83 366.912C2968.83 370.707 2967.79 373.537 2965.72 375.4C2963.72 377.263 2961.31 378.195 2958.48 378.195C2955.51 378.195 2953.03 377.263 2951.02 375.4C2949.09 373.537 2948.13 370.707 2948.13 366.912C2948.13 363.047 2949.09 360.218 2951.02 358.423C2953.03 356.56 2955.51 355.628 2958.48 355.628ZM3031.46 499.515C3034.29 499.515 3037.19 499.274 3040.16 498.791C3043.13 498.307 3045.54 497.721 3047.41 497.031V510.384C3045.4 511.281 3042.61 512.041 3039.02 512.662C3035.5 513.283 3032.05 513.593 3028.67 513.593C3022.67 513.593 3017.21 512.558 3012.31 510.488C3007.41 508.348 3003.48 504.76 3000.51 499.722C2997.61 494.684 2996.17 487.714 2996.17 478.812V411.527H2980.02V403.142L2996.27 396.414L3003.1 371.777H3013.45V398.07H3046.68V411.527H3013.45V478.294C3013.45 485.403 3015.07 490.716 3018.32 494.236C3021.63 497.755 3026.01 499.515 3031.46 499.515ZM3155.59 398.07V511.523H3141.51L3139.03 495.582H3138.09C3135.75 499.515 3132.71 502.828 3128.98 505.519C3125.26 508.21 3121.05 510.212 3116.36 511.523C3111.73 512.903 3106.8 513.593 3101.55 513.593C3092.58 513.593 3085.06 512.144 3078.99 509.246C3072.91 506.347 3068.32 501.861 3065.22 495.789C3062.18 489.716 3060.66 481.917 3060.66 472.394V398.07H3078.05V471.152C3078.05 480.606 3080.19 487.68 3084.47 492.373C3088.75 496.996 3095.27 499.308 3104.04 499.308C3112.46 499.308 3119.15 497.721 3124.12 494.546C3129.16 491.372 3132.78 486.714 3134.99 480.572C3137.2 474.361 3138.3 466.77 3138.3 457.798V398.07H3155.59ZM3220.09 499.515C3222.92 499.515 3225.81 499.274 3228.78 498.791C3231.75 498.307 3234.16 497.721 3236.03 497.031V510.384C3234.03 511.281 3231.23 512.041 3227.64 512.662C3224.12 513.283 3220.67 513.593 3217.29 513.593C3211.29 513.593 3205.84 512.558 3200.94 510.488C3196.04 508.348 3192.1 504.76 3189.13 499.722C3186.24 494.684 3184.79 487.714 3184.79 478.812V411.527H3168.64V403.142L3184.89 396.414L3191.72 371.777H3202.07V398.07H3235.3V411.527H3202.07V478.294C3202.07 485.403 3203.7 490.716 3206.94 494.236C3210.25 497.755 3214.63 499.515 3220.09 499.515ZM3267.71 398.07V511.523H3250.53V398.07H3267.71ZM3259.33 355.628C3262.16 355.628 3264.57 356.56 3266.57 358.423C3268.64 360.218 3269.68 363.047 3269.68 366.912C3269.68 370.707 3268.64 373.537 3266.57 375.4C3264.57 377.263 3262.16 378.195 3259.33 378.195C3256.36 378.195 3253.87 377.263 3251.87 375.4C3249.94 373.537 3248.98 370.707 3248.98 366.912C3248.98 363.047 3249.94 360.218 3251.87 358.423C3253.87 356.56 3256.36 355.628 3259.33 355.628ZM3393.49 454.589C3393.49 463.906 3392.28 472.222 3389.87 479.537C3387.45 486.852 3383.97 493.028 3379.41 498.066C3374.86 503.104 3369.34 506.968 3362.85 509.66C3356.43 512.282 3349.15 513.593 3341.01 513.593C3333.42 513.593 3326.45 512.282 3320.1 509.66C3313.82 506.968 3308.37 503.104 3303.74 498.066C3299.19 493.028 3295.63 486.852 3293.08 479.537C3290.6 472.222 3289.35 463.906 3289.35 454.589C3289.35 442.167 3291.46 431.609 3295.67 422.914C3299.88 414.149 3305.88 407.49 3313.68 402.935C3321.55 398.311 3330.9 396 3341.73 396C3352.08 396 3361.13 398.311 3368.85 402.935C3376.65 407.559 3382.69 414.253 3386.97 423.017C3391.32 431.712 3393.49 442.236 3393.49 454.589ZM3307.16 454.589C3307.16 463.699 3308.37 471.6 3310.78 478.294C3313.2 484.988 3316.92 490.164 3321.96 493.822C3327 497.479 3333.49 499.308 3341.42 499.308C3349.29 499.308 3355.74 497.479 3360.78 493.822C3365.89 490.164 3369.65 484.988 3372.06 478.294C3374.48 471.6 3375.69 463.699 3375.69 454.589C3375.69 445.549 3374.48 437.751 3372.06 431.195C3369.65 424.57 3365.92 419.463 3360.88 415.875C3355.85 412.286 3349.32 410.492 3341.32 410.492C3329.52 410.492 3320.86 414.391 3315.34 422.189C3309.89 429.987 3307.16 440.787 3307.16 454.589ZM3468.44 396C3481.9 396 3492.08 399.312 3498.98 405.937C3505.88 412.493 3509.33 423.052 3509.33 437.613V511.523H3492.36V438.751C3492.36 429.297 3490.18 422.223 3485.84 417.531C3481.56 412.838 3474.97 410.492 3466.06 410.492C3453.5 410.492 3444.67 414.046 3439.56 421.154C3434.46 428.262 3431.9 438.579 3431.9 452.105V511.523H3414.72V398.07H3428.59L3431.18 414.425H3432.11C3434.53 410.423 3437.6 407.076 3441.32 404.384C3445.05 401.624 3449.23 399.554 3453.85 398.173C3458.47 396.724 3463.34 396 3468.44 396ZM3609.65 480.468C3609.65 487.714 3607.82 493.822 3604.16 498.791C3600.57 503.69 3595.4 507.382 3588.63 509.867C3581.94 512.351 3573.94 513.593 3564.62 513.593C3556.68 513.593 3549.82 512.972 3544.02 511.73C3538.22 510.488 3533.15 508.728 3528.8 506.451V490.613C3533.43 492.89 3538.95 494.96 3545.37 496.824C3551.78 498.687 3558.34 499.619 3565.03 499.619C3574.83 499.619 3581.94 498.031 3586.36 494.857C3590.77 491.682 3592.98 487.369 3592.98 481.917C3592.98 478.812 3592.09 476.086 3590.29 473.74C3588.57 471.324 3585.63 469.013 3581.49 466.804C3577.35 464.527 3571.62 462.042 3564.31 459.351C3557.06 456.591 3550.78 453.865 3545.47 451.173C3540.22 448.413 3536.15 445.066 3533.25 441.132C3530.42 437.199 3529.01 432.092 3529.01 425.812C3529.01 416.22 3532.87 408.87 3540.6 403.763C3548.4 398.587 3558.62 396 3571.24 396C3578.08 396 3584.46 396.69 3590.39 398.07C3596.4 399.381 3601.99 401.175 3607.16 403.453L3601.37 417.22C3596.67 415.219 3591.67 413.528 3586.36 412.148C3581.04 410.768 3575.63 410.078 3570.11 410.078C3562.17 410.078 3556.06 411.389 3551.78 414.011C3547.57 416.634 3545.47 420.222 3545.47 424.777C3545.47 428.296 3546.43 431.195 3548.37 433.472C3550.37 435.75 3553.54 437.889 3557.89 439.89C3562.24 441.891 3567.97 444.238 3575.07 446.929C3582.18 449.552 3588.32 452.278 3593.5 455.107C3598.68 457.867 3602.64 461.249 3605.4 465.251C3608.23 469.185 3609.65 474.257 3609.65 480.468Z" fill="#676C72"/>
</svg>
