<svg xmlns="http://www.w3.org/2000/svg" xmlns:xlink="http://www.w3.org/1999/xlink" width="2346" height="481" viewBox="0 0 2346 481">
  <defs>
    <linearGradient id="linear-gradient" x1="-2.847" y1="2.229" x2="-2.889" y2="2.131" gradientUnits="objectBoundingBox">
      <stop offset="0" stop-color="#37aee2"/>
      <stop offset="1" stop-color="#1e96c8"/>
    </linearGradient>
    <linearGradient id="linear-gradient-2" x1="0.613" y1="0.421" x2="0.805" y2="0.056" gradientUnits="objectBoundingBox">
      <stop offset="0" stop-color="#eff7fc"/>
      <stop offset="1" stop-color="#fff"/>
    </linearGradient>
  </defs>
  <g id="Group_550" data-name="Group 550" transform="translate(-2692 -4456)">
    <g id="telegram" transform="translate(2692 4471)">
      <path id="path2995-1-0" d="M448.549,224.628c0,124.107-100.363,224.628-224.275,224.628S0,348.736,0,224.628,100.363,0,224.275,0,448.549,100.521,448.549,224.628Z" fill="url(#linear-gradient)"/>
      <path id="path2993" d="M111.95,250.856c-7.3,0-5.99-2.808-8.611-9.734L82,170.738,214.531,88l15.537,4.118L217.152,127.31Z" transform="translate(71.135 76.728)" fill="#c8daea"/>
      <path id="path2989" d="M98,212.492c5.616,0,8.049-2.621,11.231-5.616,4.867-4.68,67.389-65.517,67.389-65.517L138.246,132,102.68,154.463,98,210.62Z" transform="translate(85.096 115.091)" fill="#a9c9dd"/>
      <path id="path2991" d="M144.531,207.38l90.6,66.827c10.3,5.616,17.783,2.808,20.4-9.547L292.412,90.947c3.744-15.162-5.8-21.9-15.724-17.409L60.3,157.026c-14.788,5.99-14.6,14.226-2.621,17.783l55.6,17.409,128.6-81.053c5.99-3.744,11.606-1.685,7.113,2.433Z" transform="translate(42.343 62.923)" fill="url(#linear-gradient-2)"/>
    </g>
    <text id="Telegram-2" data-name="Telegram" transform="translate(3216 4832)" fill="#f1f1f1" font-size="400" font-family="Sen-Bold, Sen" font-weight="700"><tspan x="0" y="0">Telegram</tspan></text>
  </g>
</svg>
