<svg id="slack-2" xmlns="http://www.w3.org/2000/svg" width="2500" height="632.6" viewBox="0 0 2500 632.6">
  <path id="Path_927" data-name="Path 927" d="M799.8,498.1,831,425.6c33.7,25.2,78.6,38.3,122.9,38.3,32.7,0,53.4-12.6,53.4-31.7-.5-53.4-195.9-11.6-197.4-145.5-.5-68,59.9-120.4,145.5-120.4,50.9,0,101.7,12.6,138,41.3l-29.2,74c-33.2-21.2-74.5-36.3-113.8-36.3-26.7,0-44.3,12.6-44.3,28.7.5,52.4,197.4,23.7,199.4,151.6,0,69.5-58.9,118.4-143.5,118.4-62-.1-118.9-14.7-162.2-45.9m1198.1-98.7a90.1,90.1,0,1,1,0-88.6L2084,263c-32.2-57.4-94.2-96.7-164.7-96.7-104.3,0-188.9,84.6-188.9,188.9s84.6,188.9,188.9,188.9A187.766,187.766,0,0,0,2084,447.4ZM1148.8,9.6h107.8V536.9H1148.8Zm977.5,0V536.9h107.8V378.7L2362,536.9h138L2337.3,349l150.6-175.3h-132L2234,319.2V9.6Z" fill="#f1f1f1" fill-rule="evenodd"/>
  <path id="Path_928" data-name="Path 928" d="M1576.9,400.4c-15.6,25.7-47.8,44.8-84.1,44.8a90.1,90.1,0,0,1,0-180.2c36.3,0,68.5,20.1,84.1,46.3Zm0-226.6v42.8c-17.6-29.7-61.4-50.4-107.3-50.4-94.7,0-169.2,83.6-169.2,188.4S1374.9,544,1469.6,544c45.8,0,89.6-20.6,107.3-50.4v42.8h107.8V173.8Z" fill="#f1f1f1"/>
  <g id="Group_550" data-name="Group 550">
    <path id="Path_929" data-name="Path 929" d="M133.5,399.9A66.5,66.5,0,1,1,67,333.4h66.5Zm33.2,0a66.5,66.5,0,0,1,133,0V566.1a66.5,66.5,0,0,1-133,0Z" fill="#e01e5a" fill-rule="evenodd"/>
    <path id="Path_930" data-name="Path 930" d="M233.2,133a66.5,66.5,0,1,1,66.5-66.5V133Zm0,33.7a66.5,66.5,0,1,1,0,133H66.5a66.5,66.5,0,0,1,0-133Z" fill="#36c5f0" fill-rule="evenodd"/>
    <path id="Path_931" data-name="Path 931" d="M499.6,233.2a66.5,66.5,0,1,1,66.5,66.5H499.6Zm-33.2,0a66.5,66.5,0,1,1-133,0V66.5a66.5,66.5,0,0,1,133,0Z" fill="#2eb67d" fill-rule="evenodd"/>
    <path id="Path_932" data-name="Path 932" d="M399.9,499.6a66.5,66.5,0,1,1-66.5,66.5V499.6Zm0-33.2a66.5,66.5,0,0,1,0-133H566.6a66.5,66.5,0,0,1,0,133Z" fill="#ecb22e" fill-rule="evenodd"/>
  </g>
</svg>
